<mxfile host="app.diagrams.net" modified="2023-10-03T02:58:53.620Z" agent="Mozilla/5.0 (Windows NT 10.0; Win64; x64) AppleWebKit/537.36 (KHTML, like Gecko) Chrome/117.0.0.0 Safari/537.36" etag="KccXQYXA1RUPQ9yOevBH" version="21.8.2" type="device">
  <diagram name="Trang-1" id="0O9hRr2BX_TqzbQARVlw">
    <mxGraphModel dx="2117" dy="542" grid="1" gridSize="10" guides="1" tooltips="1" connect="1" arrows="1" fold="1" page="1" pageScale="1" pageWidth="827" pageHeight="1169" math="0" shadow="0">
      <root>
        <mxCell id="0" />
        <mxCell id="1" parent="0" />
        <mxCell id="ZVqdNr6P1_I5kvniK3z6-1" value="user" style="rounded=0;whiteSpace=wrap;html=1;" vertex="1" parent="1">
          <mxGeometry x="130" y="420" width="120" height="60" as="geometry" />
        </mxCell>
        <mxCell id="ZVqdNr6P1_I5kvniK3z6-2" value="order" style="rounded=0;whiteSpace=wrap;html=1;" vertex="1" parent="1">
          <mxGeometry x="294" y="300" width="120" height="60" as="geometry" />
        </mxCell>
        <mxCell id="ZVqdNr6P1_I5kvniK3z6-3" value="order_detail" style="rounded=0;whiteSpace=wrap;html=1;" vertex="1" parent="1">
          <mxGeometry x="500" y="300" width="120" height="60" as="geometry" />
        </mxCell>
        <mxCell id="ZVqdNr6P1_I5kvniK3z6-4" value="product" style="rounded=0;whiteSpace=wrap;html=1;" vertex="1" parent="1">
          <mxGeometry x="670" y="420" width="120" height="60" as="geometry" />
        </mxCell>
        <mxCell id="ZVqdNr6P1_I5kvniK3z6-6" value="cart_item" style="rounded=0;whiteSpace=wrap;html=1;" vertex="1" parent="1">
          <mxGeometry x="387" y="530" width="120" height="60" as="geometry" />
        </mxCell>
        <mxCell id="ZVqdNr6P1_I5kvniK3z6-7" value="" style="endArrow=none;html=1;rounded=0;exitX=0.5;exitY=1;exitDx=0;exitDy=0;entryX=0;entryY=0.5;entryDx=0;entryDy=0;" edge="1" parent="1" source="ZVqdNr6P1_I5kvniK3z6-1" target="ZVqdNr6P1_I5kvniK3z6-6">
          <mxGeometry width="50" height="50" relative="1" as="geometry">
            <mxPoint x="390" y="310" as="sourcePoint" />
            <mxPoint x="294" y="570" as="targetPoint" />
          </mxGeometry>
        </mxCell>
        <mxCell id="ZVqdNr6P1_I5kvniK3z6-8" value="" style="endArrow=none;html=1;rounded=0;exitX=0.5;exitY=0;exitDx=0;exitDy=0;entryX=0;entryY=0.5;entryDx=0;entryDy=0;" edge="1" parent="1" source="ZVqdNr6P1_I5kvniK3z6-1" target="ZVqdNr6P1_I5kvniK3z6-2">
          <mxGeometry width="50" height="50" relative="1" as="geometry">
            <mxPoint x="390" y="380" as="sourcePoint" />
            <mxPoint x="440" y="330" as="targetPoint" />
          </mxGeometry>
        </mxCell>
        <mxCell id="ZVqdNr6P1_I5kvniK3z6-9" value="" style="endArrow=none;html=1;rounded=0;exitX=1;exitY=0.5;exitDx=0;exitDy=0;entryX=0;entryY=0.5;entryDx=0;entryDy=0;" edge="1" parent="1" source="ZVqdNr6P1_I5kvniK3z6-2" target="ZVqdNr6P1_I5kvniK3z6-3">
          <mxGeometry width="50" height="50" relative="1" as="geometry">
            <mxPoint x="390" y="380" as="sourcePoint" />
            <mxPoint x="440" y="330" as="targetPoint" />
          </mxGeometry>
        </mxCell>
        <mxCell id="ZVqdNr6P1_I5kvniK3z6-11" value="" style="endArrow=none;html=1;rounded=0;exitX=1;exitY=0.5;exitDx=0;exitDy=0;entryX=0.5;entryY=1;entryDx=0;entryDy=0;" edge="1" parent="1" source="ZVqdNr6P1_I5kvniK3z6-6" target="ZVqdNr6P1_I5kvniK3z6-4">
          <mxGeometry width="50" height="50" relative="1" as="geometry">
            <mxPoint x="390" y="380" as="sourcePoint" />
            <mxPoint x="440" y="330" as="targetPoint" />
          </mxGeometry>
        </mxCell>
        <mxCell id="ZVqdNr6P1_I5kvniK3z6-12" value="" style="endArrow=none;html=1;rounded=0;exitX=0.5;exitY=0;exitDx=0;exitDy=0;entryX=1;entryY=0.5;entryDx=0;entryDy=0;" edge="1" parent="1" source="ZVqdNr6P1_I5kvniK3z6-4" target="ZVqdNr6P1_I5kvniK3z6-3">
          <mxGeometry width="50" height="50" relative="1" as="geometry">
            <mxPoint x="390" y="340" as="sourcePoint" />
            <mxPoint x="440" y="290" as="targetPoint" />
          </mxGeometry>
        </mxCell>
        <mxCell id="ZVqdNr6P1_I5kvniK3z6-13" value="1" style="text;html=1;align=center;verticalAlign=middle;resizable=0;points=[];autosize=1;strokeColor=none;fillColor=none;" vertex="1" parent="1">
          <mxGeometry x="165" y="388" width="30" height="30" as="geometry" />
        </mxCell>
        <mxCell id="ZVqdNr6P1_I5kvniK3z6-14" value="n" style="text;html=1;align=center;verticalAlign=middle;resizable=0;points=[];autosize=1;strokeColor=none;fillColor=none;" vertex="1" parent="1">
          <mxGeometry x="265" y="308" width="30" height="30" as="geometry" />
        </mxCell>
        <mxCell id="ZVqdNr6P1_I5kvniK3z6-15" value="1" style="text;html=1;align=center;verticalAlign=middle;resizable=0;points=[];autosize=1;strokeColor=none;fillColor=none;" vertex="1" parent="1">
          <mxGeometry x="415" y="308" width="30" height="30" as="geometry" />
        </mxCell>
        <mxCell id="ZVqdNr6P1_I5kvniK3z6-16" value="n" style="text;html=1;align=center;verticalAlign=middle;resizable=0;points=[];autosize=1;strokeColor=none;fillColor=none;" vertex="1" parent="1">
          <mxGeometry x="477" y="308" width="30" height="30" as="geometry" />
        </mxCell>
        <mxCell id="ZVqdNr6P1_I5kvniK3z6-19" value="1" style="text;html=1;align=center;verticalAlign=middle;resizable=0;points=[];autosize=1;strokeColor=none;fillColor=none;" vertex="1" parent="1">
          <mxGeometry x="715" y="390" width="30" height="30" as="geometry" />
        </mxCell>
        <mxCell id="ZVqdNr6P1_I5kvniK3z6-20" value="n" style="text;html=1;align=center;verticalAlign=middle;resizable=0;points=[];autosize=1;strokeColor=none;fillColor=none;" vertex="1" parent="1">
          <mxGeometry x="615" y="308" width="30" height="30" as="geometry" />
        </mxCell>
        <mxCell id="ZVqdNr6P1_I5kvniK3z6-21" value="1" style="text;html=1;align=center;verticalAlign=middle;resizable=0;points=[];autosize=1;strokeColor=none;fillColor=none;" vertex="1" parent="1">
          <mxGeometry x="725" y="478" width="30" height="30" as="geometry" />
        </mxCell>
        <mxCell id="ZVqdNr6P1_I5kvniK3z6-23" value="n" style="text;html=1;align=center;verticalAlign=middle;resizable=0;points=[];autosize=1;strokeColor=none;fillColor=none;" vertex="1" parent="1">
          <mxGeometry x="510" y="555" width="30" height="30" as="geometry" />
        </mxCell>
        <mxCell id="ZVqdNr6P1_I5kvniK3z6-24" value="1" style="text;html=1;align=center;verticalAlign=middle;resizable=0;points=[];autosize=1;strokeColor=none;fillColor=none;" vertex="1" parent="1">
          <mxGeometry x="190" y="480" width="30" height="30" as="geometry" />
        </mxCell>
        <mxCell id="ZVqdNr6P1_I5kvniK3z6-28" value="n" style="text;html=1;align=center;verticalAlign=middle;resizable=0;points=[];autosize=1;strokeColor=none;fillColor=none;" vertex="1" parent="1">
          <mxGeometry x="360" y="555" width="30" height="30" as="geometry" />
        </mxCell>
        <mxCell id="ZVqdNr6P1_I5kvniK3z6-29" value="type" style="whiteSpace=wrap;html=1;" vertex="1" parent="1">
          <mxGeometry x="45" y="220" width="120" height="60" as="geometry" />
        </mxCell>
        <mxCell id="ZVqdNr6P1_I5kvniK3z6-33" value="" style="endArrow=none;html=1;rounded=0;exitX=0;exitY=0;exitDx=0;exitDy=0;entryX=0.5;entryY=1;entryDx=0;entryDy=0;" edge="1" parent="1" source="ZVqdNr6P1_I5kvniK3z6-1" target="ZVqdNr6P1_I5kvniK3z6-29">
          <mxGeometry width="50" height="50" relative="1" as="geometry">
            <mxPoint x="390" y="440" as="sourcePoint" />
            <mxPoint x="440" y="390" as="targetPoint" />
          </mxGeometry>
        </mxCell>
        <mxCell id="ZVqdNr6P1_I5kvniK3z6-34" value="category" style="whiteSpace=wrap;html=1;" vertex="1" parent="1">
          <mxGeometry x="870" y="230" width="120" height="60" as="geometry" />
        </mxCell>
        <mxCell id="ZVqdNr6P1_I5kvniK3z6-36" value="" style="endArrow=none;html=1;rounded=0;entryX=0;entryY=0.5;entryDx=0;entryDy=0;exitX=1;exitY=0;exitDx=0;exitDy=0;" edge="1" parent="1" source="ZVqdNr6P1_I5kvniK3z6-4" target="ZVqdNr6P1_I5kvniK3z6-34">
          <mxGeometry width="50" height="50" relative="1" as="geometry">
            <mxPoint x="700" y="440" as="sourcePoint" />
            <mxPoint x="750" y="390" as="targetPoint" />
          </mxGeometry>
        </mxCell>
        <mxCell id="ZVqdNr6P1_I5kvniK3z6-38" value="n" style="text;html=1;align=center;verticalAlign=middle;resizable=0;points=[];autosize=1;strokeColor=none;fillColor=none;" vertex="1" parent="1">
          <mxGeometry x="770" y="390" width="30" height="30" as="geometry" />
        </mxCell>
        <mxCell id="ZVqdNr6P1_I5kvniK3z6-39" value="1" style="text;html=1;align=center;verticalAlign=middle;resizable=0;points=[];autosize=1;strokeColor=none;fillColor=none;" vertex="1" parent="1">
          <mxGeometry x="840" y="250" width="30" height="30" as="geometry" />
        </mxCell>
        <mxCell id="ZVqdNr6P1_I5kvniK3z6-53" value="&lt;b&gt;&lt;u&gt;id&lt;/u&gt;&lt;/b&gt;" style="ellipse;whiteSpace=wrap;html=1;" vertex="1" parent="1">
          <mxGeometry x="-60" y="368" width="80" height="50" as="geometry" />
        </mxCell>
        <mxCell id="ZVqdNr6P1_I5kvniK3z6-54" value="&lt;b&gt;&lt;u&gt;id&lt;/u&gt;&lt;/b&gt;" style="ellipse;whiteSpace=wrap;html=1;" vertex="1" parent="1">
          <mxGeometry x="195" y="240" width="80" height="50" as="geometry" />
        </mxCell>
        <mxCell id="ZVqdNr6P1_I5kvniK3z6-55" value="&lt;b&gt;&lt;u&gt;id&lt;/u&gt;&lt;/b&gt;" style="ellipse;whiteSpace=wrap;html=1;" vertex="1" parent="1">
          <mxGeometry x="600" y="180" width="80" height="50" as="geometry" />
        </mxCell>
        <mxCell id="ZVqdNr6P1_I5kvniK3z6-56" value="&lt;b&gt;&lt;u&gt;id&lt;/u&gt;&lt;/b&gt;" style="ellipse;whiteSpace=wrap;html=1;" vertex="1" parent="1">
          <mxGeometry x="350" y="640" width="80" height="50" as="geometry" />
        </mxCell>
        <mxCell id="ZVqdNr6P1_I5kvniK3z6-58" value="&lt;b&gt;&lt;u&gt;id&lt;/u&gt;&lt;/b&gt;" style="ellipse;whiteSpace=wrap;html=1;" vertex="1" parent="1">
          <mxGeometry x="700" y="555" width="80" height="50" as="geometry" />
        </mxCell>
        <mxCell id="ZVqdNr6P1_I5kvniK3z6-59" value="&lt;b&gt;&lt;u&gt;id&lt;/u&gt;&lt;/b&gt;" style="ellipse;whiteSpace=wrap;html=1;" vertex="1" parent="1">
          <mxGeometry x="840" y="130" width="80" height="50" as="geometry" />
        </mxCell>
        <mxCell id="ZVqdNr6P1_I5kvniK3z6-60" value="&lt;b&gt;&lt;u&gt;id&lt;/u&gt;&lt;/b&gt;" style="ellipse;whiteSpace=wrap;html=1;" vertex="1" parent="1">
          <mxGeometry x="-80" y="170" width="80" height="50" as="geometry" />
        </mxCell>
        <mxCell id="ZVqdNr6P1_I5kvniK3z6-64" value="name" style="ellipse;whiteSpace=wrap;html=1;" vertex="1" parent="1">
          <mxGeometry x="930" y="130" width="80" height="50" as="geometry" />
        </mxCell>
        <mxCell id="ZVqdNr6P1_I5kvniK3z6-68" value="" style="endArrow=none;html=1;rounded=0;exitX=0.5;exitY=0;exitDx=0;exitDy=0;entryX=0.5;entryY=1;entryDx=0;entryDy=0;" edge="1" parent="1" source="ZVqdNr6P1_I5kvniK3z6-34" target="ZVqdNr6P1_I5kvniK3z6-64">
          <mxGeometry width="50" height="50" relative="1" as="geometry">
            <mxPoint x="1170" y="410" as="sourcePoint" />
            <mxPoint x="1220" y="360" as="targetPoint" />
          </mxGeometry>
        </mxCell>
        <mxCell id="ZVqdNr6P1_I5kvniK3z6-69" value="" style="endArrow=none;html=1;rounded=0;exitX=0.5;exitY=0;exitDx=0;exitDy=0;entryX=0.5;entryY=1;entryDx=0;entryDy=0;" edge="1" parent="1" source="ZVqdNr6P1_I5kvniK3z6-34" target="ZVqdNr6P1_I5kvniK3z6-59">
          <mxGeometry width="50" height="50" relative="1" as="geometry">
            <mxPoint x="1170" y="410" as="sourcePoint" />
            <mxPoint x="1220" y="360" as="targetPoint" />
          </mxGeometry>
        </mxCell>
        <mxCell id="ZVqdNr6P1_I5kvniK3z6-70" value="name" style="ellipse;whiteSpace=wrap;html=1;" vertex="1" parent="1">
          <mxGeometry x="785" y="545" width="80" height="50" as="geometry" />
        </mxCell>
        <mxCell id="ZVqdNr6P1_I5kvniK3z6-72" value="size" style="ellipse;whiteSpace=wrap;html=1;" vertex="1" parent="1">
          <mxGeometry x="850" y="508" width="80" height="50" as="geometry" />
        </mxCell>
        <mxCell id="ZVqdNr6P1_I5kvniK3z6-73" value="quantity" style="ellipse;whiteSpace=wrap;html=1;" vertex="1" parent="1">
          <mxGeometry x="470" y="640" width="80" height="50" as="geometry" />
        </mxCell>
        <mxCell id="ZVqdNr6P1_I5kvniK3z6-74" value="quantity" style="ellipse;whiteSpace=wrap;html=1;" vertex="1" parent="1">
          <mxGeometry x="700" y="210" width="80" height="50" as="geometry" />
        </mxCell>
        <mxCell id="ZVqdNr6P1_I5kvniK3z6-75" value="price" style="ellipse;whiteSpace=wrap;html=1;" vertex="1" parent="1">
          <mxGeometry x="705" y="280" width="80" height="50" as="geometry" />
        </mxCell>
        <mxCell id="ZVqdNr6P1_I5kvniK3z6-76" value="date_time_order" style="ellipse;whiteSpace=wrap;html=1;" vertex="1" parent="1">
          <mxGeometry x="200" y="180" width="100" height="50" as="geometry" />
        </mxCell>
        <mxCell id="ZVqdNr6P1_I5kvniK3z6-77" value="user_name" style="ellipse;whiteSpace=wrap;html=1;" vertex="1" parent="1">
          <mxGeometry x="250" y="130" width="80" height="50" as="geometry" />
        </mxCell>
        <mxCell id="ZVqdNr6P1_I5kvniK3z6-78" value="phone_number" style="ellipse;whiteSpace=wrap;html=1;" vertex="1" parent="1">
          <mxGeometry x="335" y="120" width="95" height="50" as="geometry" />
        </mxCell>
        <mxCell id="ZVqdNr6P1_I5kvniK3z6-79" value="address" style="ellipse;whiteSpace=wrap;html=1;" vertex="1" parent="1">
          <mxGeometry x="440" y="130" width="80" height="50" as="geometry" />
        </mxCell>
        <mxCell id="ZVqdNr6P1_I5kvniK3z6-80" value="name" style="ellipse;whiteSpace=wrap;html=1;" vertex="1" parent="1">
          <mxGeometry x="-105" y="430" width="80" height="50" as="geometry" />
        </mxCell>
        <mxCell id="ZVqdNr6P1_I5kvniK3z6-81" value="phone_number" style="ellipse;whiteSpace=wrap;html=1;" vertex="1" parent="1">
          <mxGeometry x="-120" y="495" width="110" height="50" as="geometry" />
        </mxCell>
        <mxCell id="ZVqdNr6P1_I5kvniK3z6-82" value="address" style="ellipse;whiteSpace=wrap;html=1;" vertex="1" parent="1">
          <mxGeometry x="-80" y="555" width="80" height="50" as="geometry" />
        </mxCell>
        <mxCell id="ZVqdNr6P1_I5kvniK3z6-83" value="date_of_birth" style="ellipse;whiteSpace=wrap;html=1;" vertex="1" parent="1">
          <mxGeometry x="-10" y="595" width="80" height="50" as="geometry" />
        </mxCell>
        <mxCell id="ZVqdNr6P1_I5kvniK3z6-84" value="" style="endArrow=none;html=1;rounded=0;exitX=0.998;exitY=0.648;exitDx=0;exitDy=0;exitPerimeter=0;entryX=0;entryY=1;entryDx=0;entryDy=0;" edge="1" parent="1" source="ZVqdNr6P1_I5kvniK3z6-53" target="ZVqdNr6P1_I5kvniK3z6-1">
          <mxGeometry width="50" height="50" relative="1" as="geometry">
            <mxPoint x="290" y="450" as="sourcePoint" />
            <mxPoint x="340" y="400" as="targetPoint" />
          </mxGeometry>
        </mxCell>
        <mxCell id="ZVqdNr6P1_I5kvniK3z6-85" value="" style="endArrow=none;html=1;rounded=0;exitX=1;exitY=0.5;exitDx=0;exitDy=0;entryX=0;entryY=1;entryDx=0;entryDy=0;" edge="1" parent="1" source="ZVqdNr6P1_I5kvniK3z6-80" target="ZVqdNr6P1_I5kvniK3z6-1">
          <mxGeometry width="50" height="50" relative="1" as="geometry">
            <mxPoint x="30" y="410" as="sourcePoint" />
            <mxPoint x="140" y="490" as="targetPoint" />
          </mxGeometry>
        </mxCell>
        <mxCell id="ZVqdNr6P1_I5kvniK3z6-86" value="" style="endArrow=none;html=1;rounded=0;exitX=1;exitY=0.5;exitDx=0;exitDy=0;entryX=0;entryY=1;entryDx=0;entryDy=0;" edge="1" parent="1" source="ZVqdNr6P1_I5kvniK3z6-81" target="ZVqdNr6P1_I5kvniK3z6-1">
          <mxGeometry width="50" height="50" relative="1" as="geometry">
            <mxPoint x="40" y="420" as="sourcePoint" />
            <mxPoint x="150" y="500" as="targetPoint" />
          </mxGeometry>
        </mxCell>
        <mxCell id="ZVqdNr6P1_I5kvniK3z6-87" value="" style="endArrow=none;html=1;rounded=0;exitX=1;exitY=0.5;exitDx=0;exitDy=0;entryX=0;entryY=1;entryDx=0;entryDy=0;" edge="1" parent="1" source="ZVqdNr6P1_I5kvniK3z6-82" target="ZVqdNr6P1_I5kvniK3z6-1">
          <mxGeometry width="50" height="50" relative="1" as="geometry">
            <mxPoint x="50" y="430" as="sourcePoint" />
            <mxPoint x="160" y="510" as="targetPoint" />
          </mxGeometry>
        </mxCell>
        <mxCell id="ZVqdNr6P1_I5kvniK3z6-88" value="" style="endArrow=none;html=1;rounded=0;exitX=0;exitY=1;exitDx=0;exitDy=0;entryX=0.5;entryY=0;entryDx=0;entryDy=0;" edge="1" parent="1" source="ZVqdNr6P1_I5kvniK3z6-1" target="ZVqdNr6P1_I5kvniK3z6-83">
          <mxGeometry width="50" height="50" relative="1" as="geometry">
            <mxPoint x="60" y="440" as="sourcePoint" />
            <mxPoint x="170" y="520" as="targetPoint" />
          </mxGeometry>
        </mxCell>
        <mxCell id="ZVqdNr6P1_I5kvniK3z6-89" value="" style="endArrow=none;html=1;rounded=0;exitX=0.5;exitY=0;exitDx=0;exitDy=0;entryX=0.5;entryY=1;entryDx=0;entryDy=0;" edge="1" parent="1" source="ZVqdNr6P1_I5kvniK3z6-56" target="ZVqdNr6P1_I5kvniK3z6-6">
          <mxGeometry width="50" height="50" relative="1" as="geometry">
            <mxPoint x="290" y="550" as="sourcePoint" />
            <mxPoint x="340" y="500" as="targetPoint" />
          </mxGeometry>
        </mxCell>
        <mxCell id="ZVqdNr6P1_I5kvniK3z6-90" value="" style="endArrow=none;html=1;rounded=0;exitX=0.5;exitY=1;exitDx=0;exitDy=0;entryX=0.5;entryY=0;entryDx=0;entryDy=0;" edge="1" parent="1" source="ZVqdNr6P1_I5kvniK3z6-6" target="ZVqdNr6P1_I5kvniK3z6-73">
          <mxGeometry width="50" height="50" relative="1" as="geometry">
            <mxPoint x="70" y="450" as="sourcePoint" />
            <mxPoint x="180" y="530" as="targetPoint" />
          </mxGeometry>
        </mxCell>
        <mxCell id="ZVqdNr6P1_I5kvniK3z6-91" value="" style="endArrow=none;html=1;rounded=0;exitX=1;exitY=0.5;exitDx=0;exitDy=0;entryX=0.5;entryY=0;entryDx=0;entryDy=0;" edge="1" parent="1" source="ZVqdNr6P1_I5kvniK3z6-54" target="ZVqdNr6P1_I5kvniK3z6-2">
          <mxGeometry width="50" height="50" relative="1" as="geometry">
            <mxPoint x="290" y="350" as="sourcePoint" />
            <mxPoint x="340" y="300" as="targetPoint" />
          </mxGeometry>
        </mxCell>
        <mxCell id="ZVqdNr6P1_I5kvniK3z6-92" value="" style="endArrow=none;html=1;rounded=0;exitX=1;exitY=1;exitDx=0;exitDy=0;entryX=0.5;entryY=0;entryDx=0;entryDy=0;" edge="1" parent="1" source="ZVqdNr6P1_I5kvniK3z6-76" target="ZVqdNr6P1_I5kvniK3z6-2">
          <mxGeometry width="50" height="50" relative="1" as="geometry">
            <mxPoint x="80" y="460" as="sourcePoint" />
            <mxPoint x="190" y="540" as="targetPoint" />
          </mxGeometry>
        </mxCell>
        <mxCell id="ZVqdNr6P1_I5kvniK3z6-93" value="" style="endArrow=none;html=1;rounded=0;exitX=1;exitY=1;exitDx=0;exitDy=0;entryX=0.5;entryY=0;entryDx=0;entryDy=0;" edge="1" parent="1" source="ZVqdNr6P1_I5kvniK3z6-77" target="ZVqdNr6P1_I5kvniK3z6-2">
          <mxGeometry width="50" height="50" relative="1" as="geometry">
            <mxPoint x="90" y="470" as="sourcePoint" />
            <mxPoint x="200" y="550" as="targetPoint" />
          </mxGeometry>
        </mxCell>
        <mxCell id="ZVqdNr6P1_I5kvniK3z6-94" value="" style="endArrow=none;html=1;rounded=0;exitX=0.5;exitY=1;exitDx=0;exitDy=0;entryX=0.5;entryY=0;entryDx=0;entryDy=0;" edge="1" parent="1" source="ZVqdNr6P1_I5kvniK3z6-78" target="ZVqdNr6P1_I5kvniK3z6-2">
          <mxGeometry width="50" height="50" relative="1" as="geometry">
            <mxPoint x="100" y="480" as="sourcePoint" />
            <mxPoint x="210" y="560" as="targetPoint" />
          </mxGeometry>
        </mxCell>
        <mxCell id="ZVqdNr6P1_I5kvniK3z6-95" value="" style="endArrow=none;html=1;rounded=0;exitX=0;exitY=1;exitDx=0;exitDy=0;entryX=0.5;entryY=0;entryDx=0;entryDy=0;" edge="1" parent="1" source="ZVqdNr6P1_I5kvniK3z6-79" target="ZVqdNr6P1_I5kvniK3z6-2">
          <mxGeometry width="50" height="50" relative="1" as="geometry">
            <mxPoint x="110" y="490" as="sourcePoint" />
            <mxPoint x="220" y="570" as="targetPoint" />
          </mxGeometry>
        </mxCell>
        <mxCell id="ZVqdNr6P1_I5kvniK3z6-96" value="" style="endArrow=none;html=1;rounded=0;exitX=0.5;exitY=1;exitDx=0;exitDy=0;entryX=1;entryY=0;entryDx=0;entryDy=0;" edge="1" parent="1" source="ZVqdNr6P1_I5kvniK3z6-55" target="ZVqdNr6P1_I5kvniK3z6-3">
          <mxGeometry width="50" height="50" relative="1" as="geometry">
            <mxPoint x="120" y="500" as="sourcePoint" />
            <mxPoint x="230" y="580" as="targetPoint" />
          </mxGeometry>
        </mxCell>
        <mxCell id="ZVqdNr6P1_I5kvniK3z6-97" value="" style="endArrow=none;html=1;rounded=0;exitX=0;exitY=1;exitDx=0;exitDy=0;entryX=1;entryY=0;entryDx=0;entryDy=0;" edge="1" parent="1" source="ZVqdNr6P1_I5kvniK3z6-74" target="ZVqdNr6P1_I5kvniK3z6-3">
          <mxGeometry width="50" height="50" relative="1" as="geometry">
            <mxPoint x="130" y="510" as="sourcePoint" />
            <mxPoint x="240" y="590" as="targetPoint" />
          </mxGeometry>
        </mxCell>
        <mxCell id="ZVqdNr6P1_I5kvniK3z6-98" value="" style="endArrow=none;html=1;rounded=0;exitX=0;exitY=0.5;exitDx=0;exitDy=0;entryX=1;entryY=0;entryDx=0;entryDy=0;" edge="1" parent="1" source="ZVqdNr6P1_I5kvniK3z6-75" target="ZVqdNr6P1_I5kvniK3z6-3">
          <mxGeometry width="50" height="50" relative="1" as="geometry">
            <mxPoint x="140" y="520" as="sourcePoint" />
            <mxPoint x="250" y="600" as="targetPoint" />
          </mxGeometry>
        </mxCell>
        <mxCell id="ZVqdNr6P1_I5kvniK3z6-99" value="" style="endArrow=none;html=1;rounded=0;exitX=1;exitY=1;exitDx=0;exitDy=0;entryX=0;entryY=0;entryDx=0;entryDy=0;" edge="1" parent="1" source="ZVqdNr6P1_I5kvniK3z6-4" target="ZVqdNr6P1_I5kvniK3z6-72">
          <mxGeometry width="50" height="50" relative="1" as="geometry">
            <mxPoint x="150" y="530" as="sourcePoint" />
            <mxPoint x="260" y="610" as="targetPoint" />
          </mxGeometry>
        </mxCell>
        <mxCell id="ZVqdNr6P1_I5kvniK3z6-100" value="" style="endArrow=none;html=1;rounded=0;exitX=1;exitY=1;exitDx=0;exitDy=0;entryX=0.5;entryY=0;entryDx=0;entryDy=0;" edge="1" parent="1" source="ZVqdNr6P1_I5kvniK3z6-4" target="ZVqdNr6P1_I5kvniK3z6-70">
          <mxGeometry width="50" height="50" relative="1" as="geometry">
            <mxPoint x="160" y="540" as="sourcePoint" />
            <mxPoint x="270" y="620" as="targetPoint" />
          </mxGeometry>
        </mxCell>
        <mxCell id="ZVqdNr6P1_I5kvniK3z6-101" value="" style="endArrow=none;html=1;rounded=0;exitX=1;exitY=1;exitDx=0;exitDy=0;entryX=0.5;entryY=0;entryDx=0;entryDy=0;" edge="1" parent="1" source="ZVqdNr6P1_I5kvniK3z6-4" target="ZVqdNr6P1_I5kvniK3z6-58">
          <mxGeometry width="50" height="50" relative="1" as="geometry">
            <mxPoint x="170" y="550" as="sourcePoint" />
            <mxPoint x="280" y="630" as="targetPoint" />
          </mxGeometry>
        </mxCell>
        <mxCell id="ZVqdNr6P1_I5kvniK3z6-102" value="name" style="ellipse;whiteSpace=wrap;html=1;" vertex="1" parent="1">
          <mxGeometry x="20" y="130" width="80" height="50" as="geometry" />
        </mxCell>
        <mxCell id="ZVqdNr6P1_I5kvniK3z6-103" value="" style="endArrow=none;html=1;rounded=0;exitX=1;exitY=1;exitDx=0;exitDy=0;entryX=0;entryY=0;entryDx=0;entryDy=0;" edge="1" parent="1" source="ZVqdNr6P1_I5kvniK3z6-60" target="ZVqdNr6P1_I5kvniK3z6-29">
          <mxGeometry width="50" height="50" relative="1" as="geometry">
            <mxPoint x="290" y="430" as="sourcePoint" />
            <mxPoint x="340" y="380" as="targetPoint" />
          </mxGeometry>
        </mxCell>
        <mxCell id="ZVqdNr6P1_I5kvniK3z6-104" value="" style="endArrow=none;html=1;rounded=0;exitX=0.5;exitY=1;exitDx=0;exitDy=0;entryX=0;entryY=0;entryDx=0;entryDy=0;" edge="1" parent="1" source="ZVqdNr6P1_I5kvniK3z6-102" target="ZVqdNr6P1_I5kvniK3z6-29">
          <mxGeometry width="50" height="50" relative="1" as="geometry">
            <mxPoint x="-2" y="223" as="sourcePoint" />
            <mxPoint x="55" y="230" as="targetPoint" />
          </mxGeometry>
        </mxCell>
        <mxCell id="ZVqdNr6P1_I5kvniK3z6-105" value="1" style="text;html=1;align=center;verticalAlign=middle;resizable=0;points=[];autosize=1;strokeColor=none;fillColor=none;" vertex="1" parent="1">
          <mxGeometry x="80" y="280" width="30" height="30" as="geometry" />
        </mxCell>
        <mxCell id="ZVqdNr6P1_I5kvniK3z6-106" value="n" style="text;html=1;align=center;verticalAlign=middle;resizable=0;points=[];autosize=1;strokeColor=none;fillColor=none;" vertex="1" parent="1">
          <mxGeometry x="100" y="400" width="30" height="30" as="geometry" />
        </mxCell>
        <mxCell id="ZVqdNr6P1_I5kvniK3z6-109" value="role" style="rounded=0;whiteSpace=wrap;html=1;" vertex="1" parent="1">
          <mxGeometry x="130" y="790" width="120" height="60" as="geometry" />
        </mxCell>
        <mxCell id="ZVqdNr6P1_I5kvniK3z6-111" value="user_role" style="rhombus;whiteSpace=wrap;html=1;" vertex="1" parent="1">
          <mxGeometry x="112.5" y="590" width="135" height="80" as="geometry" />
        </mxCell>
        <mxCell id="ZVqdNr6P1_I5kvniK3z6-112" value="" style="endArrow=none;html=1;rounded=0;exitX=0.5;exitY=0;exitDx=0;exitDy=0;entryX=0.25;entryY=1;entryDx=0;entryDy=0;" edge="1" parent="1" source="ZVqdNr6P1_I5kvniK3z6-111" target="ZVqdNr6P1_I5kvniK3z6-1">
          <mxGeometry width="50" height="50" relative="1" as="geometry">
            <mxPoint x="490" y="640" as="sourcePoint" />
            <mxPoint x="540" y="590" as="targetPoint" />
          </mxGeometry>
        </mxCell>
        <mxCell id="ZVqdNr6P1_I5kvniK3z6-113" value="" style="endArrow=none;html=1;rounded=0;exitX=0.5;exitY=0;exitDx=0;exitDy=0;entryX=0.5;entryY=1;entryDx=0;entryDy=0;" edge="1" parent="1" source="ZVqdNr6P1_I5kvniK3z6-109" target="ZVqdNr6P1_I5kvniK3z6-111">
          <mxGeometry width="50" height="50" relative="1" as="geometry">
            <mxPoint x="490" y="640" as="sourcePoint" />
            <mxPoint x="540" y="590" as="targetPoint" />
          </mxGeometry>
        </mxCell>
        <mxCell id="ZVqdNr6P1_I5kvniK3z6-115" value="n" style="text;html=1;align=center;verticalAlign=middle;resizable=0;points=[];autosize=1;strokeColor=none;fillColor=none;" vertex="1" parent="1">
          <mxGeometry x="145" y="658" width="30" height="30" as="geometry" />
        </mxCell>
        <mxCell id="ZVqdNr6P1_I5kvniK3z6-116" value="1" style="text;html=1;align=center;verticalAlign=middle;resizable=0;points=[];autosize=1;strokeColor=none;fillColor=none;" vertex="1" parent="1">
          <mxGeometry x="155" y="758" width="30" height="30" as="geometry" />
        </mxCell>
        <mxCell id="ZVqdNr6P1_I5kvniK3z6-117" value="1" style="text;html=1;align=center;verticalAlign=middle;resizable=0;points=[];autosize=1;strokeColor=none;fillColor=none;" vertex="1" parent="1">
          <mxGeometry x="135" y="478" width="30" height="30" as="geometry" />
        </mxCell>
        <mxCell id="ZVqdNr6P1_I5kvniK3z6-118" value="n" style="text;html=1;align=center;verticalAlign=middle;resizable=0;points=[];autosize=1;strokeColor=none;fillColor=none;" vertex="1" parent="1">
          <mxGeometry x="145" y="568" width="30" height="30" as="geometry" />
        </mxCell>
        <mxCell id="ZVqdNr6P1_I5kvniK3z6-119" value="&lt;b&gt;&lt;u&gt;id&lt;/u&gt;&lt;/b&gt;" style="ellipse;whiteSpace=wrap;html=1;" vertex="1" parent="1">
          <mxGeometry x="105" y="910" width="80" height="50" as="geometry" />
        </mxCell>
        <mxCell id="ZVqdNr6P1_I5kvniK3z6-120" value="name" style="ellipse;whiteSpace=wrap;html=1;" vertex="1" parent="1">
          <mxGeometry x="195" y="910" width="80" height="50" as="geometry" />
        </mxCell>
        <mxCell id="ZVqdNr6P1_I5kvniK3z6-121" value="" style="endArrow=none;html=1;rounded=0;exitX=0.5;exitY=0;exitDx=0;exitDy=0;entryX=0.5;entryY=1;entryDx=0;entryDy=0;" edge="1" parent="1" source="ZVqdNr6P1_I5kvniK3z6-119" target="ZVqdNr6P1_I5kvniK3z6-109">
          <mxGeometry width="50" height="50" relative="1" as="geometry">
            <mxPoint x="490" y="740" as="sourcePoint" />
            <mxPoint x="540" y="690" as="targetPoint" />
          </mxGeometry>
        </mxCell>
        <mxCell id="ZVqdNr6P1_I5kvniK3z6-122" value="" style="endArrow=none;html=1;rounded=0;exitX=0.5;exitY=0;exitDx=0;exitDy=0;entryX=0.5;entryY=1;entryDx=0;entryDy=0;" edge="1" parent="1" source="ZVqdNr6P1_I5kvniK3z6-120" target="ZVqdNr6P1_I5kvniK3z6-109">
          <mxGeometry width="50" height="50" relative="1" as="geometry">
            <mxPoint x="130" y="910" as="sourcePoint" />
            <mxPoint x="200" y="860" as="targetPoint" />
          </mxGeometry>
        </mxCell>
      </root>
    </mxGraphModel>
  </diagram>
</mxfile>
